#!OML:ASF E:\emotionWalksFemale\Project 1\Capture day 1\Session 1\Female1.ASF
:FULLY-SPECIFIED
:DEGREES
1751
root 9.61682 15.3415 -2.94255 -1.12013 10.5857 -364.008
lowerback 6.01684 1.28599 -2.45668
upperback 2.05609 1.57641 0.246577
thorax -1.32728 0.785351 1.51972
lowerneck 1.45689 -6.91374 -9.20752
upperneck -4.40738 -9.07994 13.4317
head -0.46241 -4.64246 5.5308
rclavicle 1.02374e-014 7.15625e-015
rhumerus -18.9112 8.74265 -82.165
rradius 38.4385
rwrist 20.5029
rhand -5.91323 -54.6548
rfingers 7.12502
rthumb 19.9158 -83.6543
lclavicle 1.02374e-014 7.15625e-015
lhumerus -42.249 6.78524 68.7834
lradius 37.128
lwrist -11.8202
lhand -5.9125 -38.9502
lfingers 7.12502
lthumb 19.9165 -9.95077
rfemur -5.47405 15.2013 35.8211
rtibia 22.6671
rfoot -13.9544 -31.8861
rtoes 33.3967
lfemur -26.6603 -4.44546 -16.5213
ltibia 68.2288
lfoot -16.0178 2.26131
ltoes -22.7934
1752
root 9.62013 15.3342 -2.83513 -1.098 10.2621 -363.857
lowerback 5.99949 1.43069 -2.40804
upperback 1.97471 1.7683 0.0954207
thorax -1.40386 0.882848 1.32221
lowerneck 2.00442 -6.92127 -9.24342
upperneck -4.30299 -9.14746 13.0058
head -0.535792 -4.6848 5.42603
rclavicle -4.45278e-014 -7.15625e-015
rhumerus -18.591 8.84632 -82.3814
rradius 38.1636
rwrist 20.9289
rhand -4.47392 -55.3843
rfingers 7.12502
rthumb 21.2988 -84.2339
lclavicle -4.45278e-014 -7.15625e-015
lhumerus -42.511 7.01848 68.3829
lradius 37.7795
lwrist -10.3535
lhand -5.31003 -38.5541
lfingers 7.12502
lthumb 20.4955 -9.61587
rfemur -5.06415 15.1369 35.8658
rtibia 22.8775
rfoot -14.1608 -31.7222
rtoes 32.6399
lfemur -27.4839 -4.62703 -16.8439
ltibia 67.1573
lfoot -17.1139 2.91173
ltoes -28.1614
1753
root 9.62696 15.3288 -2.72977 -1.19328 10.0618 -363.901
lowerback 6.12181 1.50495 -2.05702
upperback 2.00913 1.88246 -0.0502199
thorax -1.42546 0.94012 0.964909
lowerneck 2.23597 -6.8954 -9.40114
upperneck -4.26828 -9.14023 12.9044
head -0.562714 -4.68416 5.42951
rclavicle -1.88845e-015 -7.95139e-015
rhumerus -18.0468 8.94031 -82.6748
rradius 37.933
rwrist 21.2187
rhand -3.48118 -55.9115
rfingers 7.12502
rthumb 22.2521 -84.6505
lclavicle -1.88845e-015 -7.95139e-015
lhumerus -42.6022 7.1276 68.0929
lradius 38.5441
lwrist -8.77253
lhand -4.63853 -37.852
lfingers 7.12502
lthumb 21.1407 -8.98459
rfemur -4.50492 15.0512 36.1103
rtibia 22.8616
rfoot -14.336 -31.671
rtoes 32.2521
lfemur -28.3155 -4.94871 -16.9209
ltibia 65.9824
lfoot -18.202 2.34521
ltoes -25.2048
1754
root 9.63372 15.3194 -2.62238 -1.40276 9.8756 -363.921
lowerback 6.38632 1.52432 -1.82986
upperback 2.13862 1.9159 -0.139799
thorax -1.4301 0.956382 0.738183
lowerneck 1.76825 -6.77053 -9.75596
upperneck -3.8395 -8.98212 12.9664
head -0.359391 -4.58244 5.47832
rclavicle -8.44835e-015 -1.03368e-014
rhumerus -17.3347 9.3819 -82.9587
rradius 37.6898
rwrist 21.2747
rhand -3.60096 -55.4454
rfingers 7.12502
rthumb 22.1371 -84.198
lclavicle -8.44835e-015 -1.03368e-014
lhumerus -42.6434 7.59378 67.7587
lradius 39.2169
lwrist -7.78114
lhand -4.25421 -36.8873
lfingers 7.12502
lthumb 21.5098 -8.06169
rfemur -3.6656 15.2144 36.3982
rtibia 22.5852
rfoot -14.513 -31.7804
rtoes 32.2237
lfemur -28.8606 -5.30591 -17.0238
ltibia 64.6713
lfoot -18.2969 2.75338
ltoes -22.9577
1755
root 9.6372 15.3151 -2.50908 -1.57643 9.63788 -363.923
lowerback 6.5797 1.573 -1.70262
upperback 2.26246 1.98496 -0.192784
thorax -1.40585 0.990301 0.603888
lowerneck 1.23635 -6.74568 -9.83227
upperneck -3.4043 -8.94969 12.591
head -0.164919 -4.53915 5.34527
rclavicle -1.31198e-014 9.54166e-015
rhumerus -16.7447 10.0633 -83.2048
rradius 37.6155
rwrist 20.8995
rhand -3.67789 -55.0046
rfingers 7.12502
rthumb 22.0632 -83.7659
lclavicle -1.31198e-014 9.54166e-015
lhumerus -42.6425 8.16327 67.4142
lradius 39.6963
lwrist -7.15278
lhand -4.66754 -36.2972
lfingers 7.12502
lthumb 21.1128 -7.42663
rfemur -2.73266 15.4711 36.6942
rtibia 22.1737
rfoot -14.8305 -31.9074
rtoes 32.5156
lfemur -29.3153 -5.58257 -17.1148
ltibia 63.2065
lfoot -17.6682 4.00283
ltoes -22.3854
1756
root 9.64108 15.3176 -2.39558 -1.60376 9.485 -363.985
lowerback 6.63771 1.61229 -1.49722
upperback 2.32455 2.0489 -0.244599
thorax -1.36677 1.02219 0.430154
lowerneck 1.15157 -6.75628 -9.68296
upperneck -3.32354 -8.96683 12.076
head -0.15882 -4.53954 5.1599
rclavicle -2.77305e-014 7.15625e-015
rhumerus -16.3067 10.6496 -83.4635
rradius 37.6652
rwrist 20.661
rhand -3.05581 -54.9796
rfingers 7.12502
rthumb 22.6604 -83.6692
lclavicle -2.77305e-014 7.15625e-015
lhumerus -42.6784 8.44763 67.2081
lradius 40.1543
lwrist -6.08964
lhand -6.01185 -35.8146
lfingers 7.12502
lthumb 19.821 -6.80524
rfemur -1.97858 15.5515 36.9847
rtibia 21.7301
rfoot -14.9803 -31.9805
rtoes 32.7504
lfemur -29.9181 -6.00884 -17.0708
ltibia 61.5975
lfoot -17.2675 4.35711
ltoes -19.0443
1757
root 9.64932 15.318 -2.28383 -1.53832 9.38216 -363.933
lowerback 6.76674 1.60143 -1.35428
upperback 2.21684 2.03786 -0.352715
thorax -1.54026 1.01824 0.234201
lowerneck 1.43748 -6.64372 -9.72543
upperneck -3.23747 -8.8473 11.856
head -0.203059 -4.48437 5.11281
rclavicle -1.85864e-014 1.43125e-014
rhumerus -16.1146 11.308 -83.8202
rradius 37.725
rwrist 20.6042
rhand -2.46264 -54.6646
rfingers 7.12502
rthumb 23.2296 -83.2835
lclavicle -1.85864e-014 1.43125e-014
lhumerus -42.985 8.72398 66.9482
lradius 40.569
lwrist -4.87348
lhand -6.98461 -35.8491
lfingers 7.12502
lthumb 18.8856 -6.7459
rfemur -1.29543 15.4149 37.0712
rtibia 21.2037
rfoot -14.7433 -31.8103
rtoes 32.5253
lfemur -30.486 -6.58789 -17.1198
ltibia 59.8752
lfoot -17.4841 4.51048
ltoes -17.1852
1758
root 9.65963 15.3155 -2.16945 -1.50236 9.20625 -363.876
lowerback 6.46919 1.58878 -1.17778
upperback 2.43124 2.03833 -0.460415
thorax -1.14455 1.01716 0.037782
lowerneck 1.21923 -6.57144 -9.71293
upperneck -3.12399 -8.7438 11.5894
head -0.159285 -4.42252 5.02181
rclavicle -1.07344e-014 4.77083e-015
rhumerus -15.4301 12.2083 -84.1042
rradius 37.7719
rwrist 20.1315
rhand -2.15948 -54.2744
rfingers 7.12502
rthumb 23.5204 -82.8564
lclavicle -1.07344e-014 4.77083e-015
lhumerus -43.0125 8.75089 66.9972
lradius 41.3382
lwrist -3.35069
lhand -7.26704 -35.9451
lfingers 7.12502
lthumb 18.614 -6.81565
rfemur -0.534059 15.1875 37.1315
rtibia 20.6095
rfoot -14.5718 -31.4301
rtoes 32.3114
lfemur -30.9142 -7.14188 -17.1382
ltibia 58.0849
lfoot -18.0927 4.92372
ltoes -19.6607
1759
root 9.66642 15.3166 -2.05259 -1.49501 8.99194 -363.949
lowerback 6.58625 1.63224 -0.981697
upperback 2.32684 2.10454 -0.492406
thorax -1.30944 1.05144 -0.115288
lowerneck 1.39938 -6.48872 -9.61905
upperneck -3.06213 -8.65372 11.1702
head -0.205106 -4.37784 4.88834
rclavicle -1.35174e-014 0
rhumerus -15.3484 13.152 -84.4575
rradius 37.9179
rwrist 19.7443
rhand -2.08474 -53.8513
rfingers 7.12502
rthumb 23.5921 -82.4241
lclavicle -1.35174e-014 0
lhumerus -42.6429 10.0129 66.4374
lradius 40.273
lwrist -3.65899
lhand -7.63988 -36.8377
lfingers 7.12502
lthumb 18.2553 -7.67437
rfemur 0.208256 14.9414 37.3416
rtibia 20.0639
rfoot -14.3819 -31.1153
rtoes 31.8563
lfemur -31.3302 -7.65748 -16.9494
ltibia 56.2301
lfoot -18.515 5.13283
ltoes -21.0191
1760
root 9.67386 15.318 -1.93631 -1.4591 8.81812 -364.058
lowerback 6.52157 1.64556 -0.769811
upperback 2.29801 2.13579 -0.509939
thorax -1.29508 1.06755 -0.25269
lowerneck 1.87743 -6.27328 -9.63209
upperneck -3.49036 -8.3761 11.062
head -0.442153 -4.25213 4.89242
rclavicle -1.27222e-014 -7.95139e-016
rhumerus -15.0802 14.0579 -84.7834
rradius 37.9999
rwrist 19.5905
rhand -1.99471 -53.3981
rfingers 7.12502
rthumb 23.6785 -81.9597
lclavicle -1.27222e-014 -7.95139e-016
lhumerus -42.4194 10.9475 66.0005
lradius 39.6094
lwrist -3.64833
lhand -7.80017 -37.6989
lfingers 7.12502
lthumb 18.1011 -8.52117
rfemur 0.877062 14.641 37.554
rtibia 19.539
rfoot -14.0344 -30.7906
rtoes 30.8708
lfemur -31.7623 -8.17896 -16.6911
ltibia 54.3007
lfoot -18.7007 5.36673
ltoes -21.9391
1761
root 9.68402 15.3138 -1.8225 -1.3671 8.67647 -364.025
lowerback 6.38184 1.62165 -0.699239
upperback 2.31288 2.10937 -0.558285
thorax -1.19781 1.05458 -0.335087
lowerneck 1.20941 -6.34756 -9.12403
upperneck -2.79346 -8.46708 10.128
head -0.185695 -4.27068 4.48776
rclavicle 7.35503e-015 -7.95139e-016
rhumerus -14.7011 14.9884 -85.0728
rradius 38.141
rwrist 19.2803
rhand -1.54927 -53.2381
rfingers 7.12502
rthumb 24.1056 -81.7438
lclavicle 7.35503e-015 -7.95139e-016
lhumerus -42.5037 11.5379 65.677
lradius 39.4969
lwrist -3.12668
lhand -7.63171 -38.6014
lfingers 7.12502
lthumb 18.2632 -9.43873
rfemur 1.52273 14.3938 37.5899
rtibia 18.9739
rfoot -13.9992 -30.4535
rtoes 30.2465
lfemur -32.1404 -8.83453 -16.5469
ltibia 52.3113
lfoot -18.7693 5.76714
ltoes -22.5714
1762
root 9.69129 15.3091 -1.70791 -1.31126 8.46167 -363.873
lowerback 6.29349 1.64824 -0.824956
upperback 2.28559 2.13661 -0.636706
thorax -1.17834 1.06801 -0.344933
lowerneck 1.64259 -6.15189 -8.9316
upperneck -2.94666 -8.23972 9.46817
head -0.402558 -4.15735 4.76024
rclavicle -1.49089e-015 -2.38542e-015
rhumerus -14.5615 15.9249 -85.4392
rradius 38.4025
rwrist 18.9139
rhand -1.27641 -53.1174
rfingers 7.12502
rthumb 24.3672 -81.5881
lclavicle -1.49089e-015 -2.38542e-015
lhumerus -42.5102 12.3391 65.3314
lradius 39.1373
lwrist -3.24549
lhand -7.80022 -38.9653
lfingers 7.12502
lthumb 18.1011 -9.7876
rfemur 2.29166 14.2953 37.5524
rtibia 18.3785
rfoot -14.175 -30.2455
rtoes 30.0199
lfemur -32.3912 -9.55649 -16.4823
ltibia 50.2986
lfoot -18.6571 6.50594
ltoes -23.223
1763
root 9.69868 15.3048 -1.59098 -1.31962 8.15339 -363.811
lowerback 6.2067 1.71788 -0.899063
upperback 2.31923 2.22618 -0.647716
thorax -1.09794 1.11236 -0.317691
lowerneck 2.2395 -5.73113 -9.17334
upperneck -3.68679 -7.66635 10.169
head -0.689647 -3.89793 4.57973
rclavicle -1.91827e-014 8.74653e-015
rhumerus -14.4222 16.9316 -85.7427
rradius 38.675
rwrist 18.7036
rhand -1.42098 -52.6507
rfingers 7.12502
rthumb 24.2286 -81.14
lclavicle -1.91827e-014 8.74653e-015
lhumerus -42.3441 13.3586 65.0761
lradius 38.5114
lwrist -3.88486
lhand -8.2756 -39.0312
lfingers 7.12502
lthumb 17.6436 -9.81169
rfemur 3.18944 14.1893 37.6133
rtibia 17.6926
rfoot -14.3172 -29.9717
rtoes 30.1317
lfemur -32.5624 -10.21 -16.2928
ltibia 48.2829
lfoot -18.4748 7.30968
ltoes -23.8927
1764
root 9.70961 15.3012 -1.47415 -1.33851 7.94396 -363.842
lowerback 6.13166 1.75158 -0.818907
upperback 2.3913 2.2782 -0.601287
thorax -0.981074 1.13826 -0.314515
lowerneck 2.45396 -5.40749 -9.38302
upperneck -4.08707 -7.22918 10.3002
head -0.871774 -3.68495 4.67434
rclavicle 1.59028e-014 -7.15625e-015
rhumerus -14.2523 17.8721 -85.9446
rradius 38.9899
rwrist 18.6003
rhand -1.77543 -52.2039
rfingers 7.12502
rthumb 23.8888 -80.7382
lclavicle 1.59028e-014 -7.15625e-015
lhumerus -42.3685 13.865 65.1489
lradius 38.3431
lwrist -4.08082
lhand -8.61749 -39.0826
lfingers 7.12502
lthumb 17.3146 -9.8339
rfemur 4.1068 14.023 37.7502
rtibia 16.9234
rfoot -14.3059 -29.6916
rtoes 29.8674
lfemur -32.6963 -11.0183 -15.9365
ltibia 46.2387
lfoot -18.4449 7.80401
ltoes -23.0824
1765
root 9.72012 15.3061 -1.35339 -1.35402 7.8535 -363.807
lowerback 6.11075 1.73749 -0.740212
upperback 2.3763 2.26374 -0.626538
thorax -0.980833 1.13146 -0.382996
lowerneck 2.49819 -5.25537 -9.31415
upperneck -3.99581 -7.03629 10.0885
head -0.882464 -3.58631 4.60055
rclavicle -2.0773e-014 -1.11319e-014
rhumerus -14.3317 18.7275 -86.3044
rradius 39.4421
rwrist 18.4362
rhand -2.2403 -51.9109
rfingers 7.12502
rthumb 23.4429 -80.5028
lclavicle -2.0773e-014 -1.11319e-014
lhumerus -42.4756 14.324 65.1344
lradius 38.1625
lwrist -4.38588
lhand -8.66609 -39.1047
lfingers 7.12502
lthumb 17.2678 -9.85185
rfemur 5.01997 13.7396 37.8122
rtibia 16.1639
rfoot -13.9756 -29.4768
rtoes 28.5715
lfemur -32.8121 -12.0175 -15.5797
ltibia 44.1516
lfoot -18.3013 8.51979
ltoes -23.9369
